<svg width="1136" height="1533" viewBox="0 0 1136 1533" fill="none" xmlns="http://www.w3.org/2000/svg">
<path fill-rule="evenodd" clip-rule="evenodd" d="M921.281 1192.02C917.25 1169.26 913.555 1146.43 910.197 1123.56C908.603 1112.7 907.048 1101.83 905.65 1090.94C904.671 1083.31 903.18 1074.59 908.37 1068.94C915.673 1060.99 922.307 1054.18 923.201 1042.79C924.042 1032.08 920.418 1020.39 918.152 1009.99C913.4 988.174 907.484 966.628 900.947 945.286C894.306 923.603 887.024 902.124 879.637 880.686C872.731 860.642 866.092 840.417 857.097 821.186C840.026 784.691 811.146 757.664 775.454 739.618C766.577 735.13 748.471 719.108 739.197 715.521C730.671 712.223 730.702 721.854 722.311 718.226C715.603 715.326 709.357 711.459 705.601 704.982C701.523 697.949 691.296 688.113 689.739 679.927C686.44 662.576 690.014 647.807 677.63 634.748C666.636 623.151 651.859 615.206 636.569 610.941C602.933 601.56 558.075 608.119 537.781 639.374C528.088 654.3 524.701 672.342 511.622 684.523C500.201 695.159 502.757 702.431 487.965 707.913C487.127 708.224 464.419 703.353 463.581 703.665C447.399 700.202 431.933 709.895 417.087 715.521C394.954 723.905 373.882 734.819 354.085 747.79C314.166 773.945 279.976 807.908 251.789 846.341C223.369 885.091 201.318 928.523 185.617 973.917C181.804 984.943 178.379 996.103 175.358 1007.37C173.667 1013.68 171.86 1020.22 173.919 1026.68C175.603 1031.96 179.349 1035.89 183.748 1039.06C189.711 1043.36 201.672 1046.15 201.439 1054.79C201.261 1061.36 199.032 1068.28 197.944 1074.77C196.649 1082.5 195.585 1090.28 194.521 1098.05C189.681 1133.4 185.914 1168.95 184.248 1204.6C182.608 1239.7 181.247 1275.52 183.682 1310.61C183.843 1312.92 184.533 1315.05 185.646 1316.84C184.607 1317.24 184.527 1319.18 185.82 1319.45C186.726 1319.64 187.63 1319.84 188.536 1320.03C190.418 1321.45 192.765 1322.32 195.466 1322.41C197.297 1322.47 199.127 1322.55 200.956 1322.64C220.257 1326.68 239.555 1330.49 259.108 1333.38C282.876 1336.88 306.714 1339.74 330.626 1342.07C379.761 1346.85 428.509 1345.26 477.709 1342.69C526.833 1340.11 575.928 1339.51 625.103 1340.79C674.321 1342.07 723.521 1344.21 772.75 1345.09C827.749 1346.07 882.664 1344.57 937.504 1340.19C945.023 1339.6 949.675 1333.61 948.192 1326.15C939.307 1281.4 929.238 1236.96 921.281 1192.02Z" fill="#D08B5B"/>
<path fill-rule="evenodd" clip-rule="evenodd" d="M417.087 715.521L418.161 715.107C432.679 709.436 447.79 700.285 463.582 703.665C464.14 703.457 474.416 705.552 481.454 706.88L474.774 713.853L462.984 716.121C503.657 783.249 551.762 816.813 607.298 816.813C662.835 816.813 704.976 783.249 733.723 716.121L737.646 715.036C738.13 715.148 738.646 715.307 739.198 715.521C748.472 719.108 766.577 735.129 775.454 739.617C811.146 757.664 840.026 784.69 857.097 821.186C865.792 839.776 872.286 859.294 878.947 878.68L879.637 880.685C887.024 902.123 894.306 923.603 900.947 945.286C907.2 965.7 912.885 986.301 917.526 1007.15L918.152 1009.99C920.418 1020.39 924.042 1032.08 923.201 1042.79C922.883 1046.85 921.836 1050.33 920.289 1053.48L839.843 1082.43L878.169 1343.82C843.062 1345.33 807.923 1345.72 772.75 1345.09C723.521 1344.21 674.321 1342.07 625.103 1340.79C577.418 1339.55 529.809 1340.08 482.175 1342.46L470.078 1343.08C423.465 1345.41 377.22 1346.6 330.626 1342.07L327.451 1341.76V1341.76L327.451 1303.52L343.818 1090.61L260.873 1075L179.451 1035.45C176.991 1032.99 175.017 1030.12 173.919 1026.68C172.012 1020.7 173.422 1014.64 174.983 1008.77L175.358 1007.37C178.379 996.103 181.804 984.943 185.617 973.917C201.318 928.523 223.369 885.09 251.789 846.341C279.976 807.908 314.166 773.945 354.085 747.789C373.882 734.819 394.954 723.905 417.087 715.521Z" fill="#78E185"/>
<path fill-rule="evenodd" clip-rule="evenodd" d="M448.235 702.564C453.321 702.343 458.507 703.166 463.581 703.665C464.023 703.708 464.191 704.39 463.693 704.494C454.613 706.391 445.631 708.986 436.713 711.622L432.894 712.752C422.837 715.727 413.075 718.796 403.339 722.764C383.935 730.672 365.506 741.346 348.545 753.609C283.233 800.83 235.963 872.324 206.133 946.345C198.032 966.447 191.168 987.049 185.608 1008C184.256 1013.09 182.984 1018.21 181.778 1023.34C181.424 1024.85 179.881 1028.7 180.727 1030.24C181.475 1031.6 184.383 1032.45 185.734 1033.15L190.295 1035.52C199.192 1040.1 214.012 1047.64 215.498 1048.38L217.816 1049.52C255.727 1068.1 296.234 1083.86 338.895 1084.95L339.229 1081.31V1081.31C341.131 1061.17 343.627 1040.92 349.075 1021.4C349.368 1020.35 350.703 1020.7 350.825 1021.64C353.86 1044.75 352.89 1068.04 351.831 1091.26C349.956 1132.38 347.466 1173.48 345.253 1214.58C344.145 1235.15 342.713 1255.69 341.42 1276.25C340.125 1296.84 339.706 1317.93 336.749 1338.35C336.09 1342.9 330.758 1345.38 326.72 1344.9C322.252 1344.37 318.815 1340.43 318.794 1335.92C318.74 1324.02 320.235 1311.98 321.066 1300.12C321.855 1288.84 322.702 1277.57 323.57 1266.3C326.742 1225.17 330.391 1184.09 333.766 1142.97C334.962 1128.39 336.254 1113.82 337.584 1099.25C292.391 1097.8 250.17 1081.06 209.892 1061.5C209.309 1074.74 207.901 1087.95 206.538 1101.13C202.733 1137.92 199.378 1174.69 196.867 1211.59C195.599 1230.23 194.676 1248.89 193.872 1267.55C193.477 1276.72 193.155 1285.9 192.908 1295.07C192.826 1298.13 192.751 1301.19 192.685 1304.25L192.547 1311.26C192.435 1315.7 191.984 1319.81 188.247 1323.04C184.452 1326.33 179.326 1326.5 175.57 1323.04C170.542 1318.41 171.431 1312.11 171.58 1305.89C171.704 1300.64 171.853 1295.4 172.026 1290.16C172.373 1279.67 172.816 1269.19 173.355 1258.71C175.241 1222.07 179.01 1185.58 183.935 1149.24L185.857 1135.21C189.448 1109.13 193.389 1082.46 201.415 1057.33C198.29 1055.78 195.174 1054.21 192.07 1052.64C186.564 1049.85 180.871 1047.24 175.519 1044.16C171.273 1041.72 167.611 1038.37 166.429 1033.43C165.111 1027.93 167.127 1021.9 168.466 1016.54L168.582 1016.06C169.895 1010.65 171.309 1005.27 172.801 999.91C178.851 978.171 186.332 956.856 195.087 936.061C212.617 894.429 235.244 854.878 262.883 819.117C287.762 786.927 317.152 757.735 351.598 735.841C368.438 725.137 386.384 716.348 405.363 710.134C414.234 707.23 423.886 704.704 433.174 703.664C438.184 703.104 443.201 702.783 448.235 702.564ZM538.349 636.594C544.393 630.104 556.401 636.82 553.499 645.414C546.673 665.633 535.803 684.076 518.839 697.362C502.893 709.852 483.878 717.963 463.4 716.232C463.242 716.218 463.105 716.178 462.984 716.121L464.749 718.515C478.603 737.256 493.219 755.738 510.836 771.056C546.729 802.267 595.599 819.101 642.789 807.126C679.917 797.705 712.627 768.346 722.247 730.93C720.868 731.548 719.229 731.759 717.43 731.368C709.733 729.697 702.113 721.602 697.149 715.798C691.779 709.519 687.585 702.739 684.511 695.075C678.885 681.049 677.081 662.99 684.763 649.403C685.711 647.728 687.897 648.667 688.083 650.302L688.375 652.854C689.856 665.588 691.701 677.905 697.705 689.513C700.643 695.193 704.165 700.737 708.452 705.494C710.746 708.039 713.233 710.471 715.918 712.605C718.534 714.684 721.701 716.188 724.046 718.573L724.476 719.031L724.488 718.949C725.081 713.908 728.616 711.687 732.075 711.826C735.422 711.961 739.354 713.434 740.877 714.14L741.021 714.208C764.373 725.418 785.88 740.029 806.12 756.239C847.976 789.763 879.337 833.588 894.532 885.196C901.99 910.525 906.269 936.624 910.786 962.601L913.568 978.518C917.784 1002.5 922.494 1026.95 932.012 1049.26C934.474 1055.03 932.576 1060.44 926.539 1062.71C919.001 1065.55 911.435 1068.29 903.857 1071C907.578 1086.96 909.847 1103.48 912.635 1119.52C918.561 1153.62 925.822 1187.5 932.048 1221.56C935.231 1238.97 938.103 1256.44 941.283 1273.85C942.814 1282.24 944.412 1290.61 945.966 1298.99C946.803 1303.51 947.562 1308.05 948.361 1312.57L948.5 1313.33C948.958 1315.71 949.533 1318.18 948.876 1320.57C948.127 1323.3 946 1325.22 944.101 1327.18C942.538 1328.79 940.279 1328.8 938.364 1327.92L937.734 1327.63C934.314 1326.03 931.634 1324.43 930.421 1320.57C929.653 1318.13 929.376 1315.38 928.874 1312.86C927.911 1308.04 926.998 1303.2 926.136 1298.36C924.412 1288.67 922.728 1278.97 921.084 1269.26L919.548 1260.17C914.278 1228.84 909.273 1197.32 906.743 1165.66C905.62 1151.61 904.431 1137.58 903.23 1123.54L902.329 1113.02C901.189 1099.69 899.796 1086.03 899.599 1072.52L895.067 1074.13V1074.13L872.957 1081.95V1081.95C867.475 1083.89 860.495 1087.86 854.595 1087.13C851.707 1086.78 849.505 1085.87 847.805 1084.22C849.841 1112.95 852.597 1141.64 856.27 1170.17C859.612 1196.14 863.317 1222.07 867.693 1247.88C869.86 1260.66 872.087 1273.43 874.506 1286.17C875.715 1292.54 876.963 1298.9 878.249 1305.25C878.89 1308.42 879.653 1311.6 880.153 1314.79C880.725 1318.45 879.717 1320.7 877.672 1323.72C875.993 1326.19 872.634 1327.46 869.911 1325.75C866.305 1323.49 864.424 1321.53 863.363 1317.41C862.399 1313.66 861.813 1309.76 861.067 1305.97C859.69 1298.97 858.359 1291.96 857.074 1284.95C854.387 1270.27 851.91 1255.57 849.698 1240.81C841.903 1188.84 836.957 1136.44 834.459 1083.95C833.226 1058.05 832.845 1032.13 833.064 1006.21C833.176 992.922 833.61 979.596 834.55 966.341C835.502 952.924 837.482 939.775 839.25 926.487C839.312 926.019 839.972 925.992 840 926.487C840.837 941.385 842.149 956.266 842.792 971.203C843.406 985.456 843.675 999.731 844.163 1013.99C844.804 1032.73 845.693 1051.48 846.87 1070.22C849.001 1067.89 852.213 1066.55 855.427 1067.07C860.083 1066.1 865.095 1063.65 869.534 1062.17L886.268 1056.58V1056.58C895.065 1053.64 903.862 1050.73 912.69 1047.9C904.797 1021.34 899.39 994.393 894.773 967.051L892.714 954.754C888.639 930.55 884.244 906.335 876.862 882.896C869.101 858.254 857.487 835.344 842.08 814.597C826.893 794.15 808.416 776.146 789.392 759.306C773.105 744.89 755.682 731.874 739.07 717.854C739.244 718.783 739.281 719.806 739.128 720.93C735.596 746.78 722.111 770.853 703.318 788.758C665.563 824.729 609.676 832.192 561.354 815.324C514.611 799.008 473.284 760.366 458.683 712.549C458.433 711.731 459.529 711.406 459.969 712.007C460.779 713.117 461.593 714.227 462.408 715.337C462.353 714.896 462.582 714.416 463.126 714.206C480.162 707.628 496.891 698.299 509.661 685.102C515.885 678.669 521.317 671.381 525.605 663.521C527.659 659.756 529.504 655.857 530.976 651.828L531.35 650.786C533.134 645.739 534.625 640.593 538.349 636.594Z" fill="black"/>
<path fill-rule="evenodd" clip-rule="evenodd" d="M756.602 353.222C752.749 329.862 765.394 325.016 756.602 302.811C737.061 261.667 683.808 263.44 644.731 260.277C601.145 258.603 557.03 264.369 516.849 281.875C507.252 286.056 498.02 290.973 489.171 296.56C481.519 301.391 482.571 310.577 487.396 315.588C452.604 364.96 472.503 431.232 444.743 483.202C439.615 492.491 432.832 500.821 428.374 510.487C421.599 525.18 421.165 546.233 436.53 555.99C458.171 567.631 470.248 544.584 480.881 577.993C533.987 694.483 640.76 701.044 742.122 640.31C750.892 635.422 759.842 629.897 766.464 622.217C781.495 605.266 779.725 581.428 780.057 560.259C780.243 547.854 780.274 535.447 780.153 523.039C779.68 472.781 763.058 403.065 756.602 353.222Z" fill="#D08B5B"/>
<path fill-rule="evenodd" clip-rule="evenodd" d="M540.71 213.508C601.911 185.688 671.325 175.138 738.084 182.058C771.035 185.468 803.552 192.784 834.497 204.669L837.21 205.719C844.849 208.666 853.083 211.59 858.888 217.588C865.645 224.558 867.54 235.098 862.71 243.708C858.958 250.398 852.212 255.197 845.018 257.758C847.552 259.838 849.957 262.158 852.212 264.748C856.014 269.088 856.304 275.277 852.212 279.558C844.329 287.808 834.101 293.777 823.084 296.638C824.321 302.628 823.653 309.258 820.998 315.228C813.382 332.365 791.926 334.407 775.415 333.389L774.916 333.358L773.998 343.888C773.509 349.498 770.156 353.848 764.468 354.708C764.268 354.738 764.068 354.758 763.869 354.777C772.87 387.398 778.309 421.027 783.328 454.458C785.95 471.909 788.298 489.4 790.545 506.903L791.291 512.738C793.686 531.608 796.68 550.668 797.718 569.678C798.646 586.928 795.363 603.398 784.755 617.318C775.235 629.798 762.253 639.148 748.292 646.088C716.749 661.777 683.549 673.458 648.663 678.878L646.336 679.236C632.87 681.296 618.995 683.032 605.674 679.298C593.969 676.018 581.694 667.558 584.339 653.968C585.227 649.378 591.633 649.178 593.829 652.728L594.335 653.541C596.968 657.727 599.853 661.617 604.447 663.777C609.825 666.318 616.062 667.027 621.939 667.098C638.354 667.288 655.448 663.188 671.255 659.078C700.773 651.399 731.088 638.878 755.267 619.908C765.556 611.848 773.818 601.768 776.732 588.798C780.334 572.808 777.021 555.328 775.385 539.258C772.017 506.098 768.009 473 763.78 439.939L762.931 433.328C759.37 405.688 755.628 378.038 753.85 350.238C753.112 349.228 752.613 348.078 752.413 346.818L752.135 345.008V345.008C751.894 343.458 751.855 342.038 752.024 340.728C752.034 335.708 752.174 330.718 752.463 325.697C752.512 324.798 752.553 323.898 752.583 323.008C747.374 324.158 742.125 325.088 736.856 325.878C699.815 331.468 662.194 332.868 624.853 330.088C606.222 328.697 587.732 326.308 569.3 323.318C559.919 321.798 550.57 320.118 541.25 318.238C534.514 316.888 527.918 315.058 521.292 313.338C514.456 323.308 510.764 335.578 511.483 347.628C512.291 361.378 521.432 373.848 518.867 387.898C516.46 401.047 505.219 405.124 494.12 408.38L489.4 409.747C485.768 410.809 483.131 411.834 482.474 416.208C481.346 423.718 482.733 432.168 483.023 439.718C483.372 448.648 483.83 457.578 484.041 466.508C484.15 471.128 484.329 475.768 484.32 480.388C484.31 483.668 483.821 485.908 482.554 488.027C483.532 489.258 484.409 490.588 485.188 491.998C485.438 492.458 484.819 492.947 484.451 492.568C483.462 491.538 482.413 490.608 481.306 489.777C480.748 490.468 480.099 491.168 479.34 491.918L479.281 491.838V491.838C476.906 494.208 473.134 494.438 470.189 491.918L469.416 491.247C467.261 489.353 465.78 487.777 465.181 484.648C465.151 484.488 465.12 484.328 465.101 484.168C459.622 483.978 454.054 485.277 449.125 488.008C441.311 492.338 435.813 498.508 432.561 506.128C433.857 507.648 435.374 509.008 437.14 510.148C437.389 510.318 437.17 510.688 436.9 510.558C435.094 509.708 433.478 508.658 432.031 507.428C430.863 510.428 430.045 513.648 429.546 517.058C427.79 529.098 430.923 543.808 441.78 550.668C446.48 553.638 451.849 555.248 457.417 555.268C460.13 555.277 462.476 554.818 465.111 554.168C466.897 553.728 468.673 553.088 470.539 553.088C472.136 553.088 473.613 553.488 474.98 554.288L474.601 554.321C473.679 554.408 473.857 554.447 475.14 554.447C479.131 554.618 481.415 558.678 479.58 562.208L479.339 562.753C479.289 562.863 479.246 562.954 479.212 563.027L479.067 563.963C479.052 564.052 479.037 564.144 479.021 564.238L478.966 564.427C478.956 564.458 478.945 564.488 478.932 564.518L484.918 573.666C492.258 584.857 499.761 596.005 508.299 606.228C514.287 613.398 520.633 620.428 527.339 626.938C533.366 632.788 540.591 635.608 547.417 640.208C551.06 642.648 552.127 647.758 548.815 651.048C539.094 660.718 525.333 653.038 517.36 645.178C509.816 637.728 503.3 628.768 497.682 619.798C487.713 603.848 479.78 586.888 476.307 568.478C474.86 569.808 473.014 570.638 471.148 571.288C467.406 572.588 463.285 573.128 459.333 573.268C451.759 573.518 444.175 571.678 437.359 568.418C409.628 555.168 405.557 515.488 422.511 492.088C420.225 485.444 418.948 478.235 417.561 472.088L416.93 469.341C409.918 438.648 405.212 406.333 417.641 376.258C419.238 372.378 421.034 368.598 423.159 364.978C424.866 362.068 427.8 358.968 428.608 355.658C430.404 348.388 419.318 340.748 416.084 334.978C412.282 328.208 411.744 320.218 416.923 314.027C417.581 313.248 418.299 312.527 419.078 311.898C414.168 302.978 413.939 291.758 420.405 282.958C424.656 277.158 431.143 273.098 438.228 271.868C442.558 271.118 447.767 271.398 452.527 272.738C478.591 248.488 508.329 228.228 540.71 213.508ZM440.622 516.938C447.578 510.788 455.262 507.568 464.742 508.378C474.272 509.197 485.748 513.148 491.345 521.338C495.766 527.808 486.755 537.298 480.269 532.438C474.362 528.008 470.419 523.008 463.086 520.628C456.498 518.498 448.346 517.128 441.45 518.348C440.692 518.478 439.934 517.538 440.622 516.938Z" fill="black"/>
<path fill-rule="evenodd" clip-rule="evenodd" d="M677.587 606.927C670.864 604.184 664.866 599.61 660.481 593.766C658.957 591.735 658.561 589.59 658.881 587.628C659.241 585.421 660.546 583.422 662.326 582.081C664.112 580.735 666.345 580.072 668.504 580.41C670.381 580.704 672.248 581.731 673.727 583.862L674.035 584.288C676.642 587.815 680.04 590.709 683.91 592.574C687.641 594.372 691.814 595.211 696.132 594.723C704.356 593.794 710.024 589.346 716.049 583.307C716.796 582.544 717.543 581.758 718.294 580.959C718.768 580.234 719.426 579.769 720.157 579.524C720.968 579.253 721.886 579.269 722.726 579.562C723.537 579.845 724.262 580.381 724.748 581.095C725.209 581.773 725.471 582.61 725.386 583.574C724.835 589.833 721.562 595.419 716.914 599.805C711.752 604.677 704.909 608.047 698.466 609.229C691.368 610.531 684.136 609.598 677.587 606.927V606.927ZM701.814 510.367C709.366 514.957 720.872 525.66 712.748 537.04C703.186 547.073 689.419 535.569 682.634 530.366C676.343 526.334 669.275 536.704 675.112 541.413C724.136 577.708 744.031 511.567 705.634 504.97C701.406 504.243 699.836 508.947 701.814 510.367ZM613.963 468.146C614.798 457.79 630.57 455.438 632.139 465.686C633.544 474.866 631.89 483.299 627.755 491.564C623.804 499.46 613.874 495.777 613.123 488.587C612.116 478.949 613.444 474.589 613.963 468.146ZM734.027 463.561C736.226 460.681 739.401 458.715 743.205 459.826C755.09 463.299 751.587 480.172 747.413 488.385C745.145 492.845 737.814 493.976 734.501 490.049C729.101 483.645 726.515 470.856 733.38 464.548C733.566 464.222 733.773 463.893 734.027 463.561ZM627.588 422.83L629.465 422.502C635.273 421.497 642.494 420.532 646.603 425.201C648.782 427.677 649.532 432.279 646.603 434.649C641.451 438.819 635.755 437.203 629.581 437.556C624.493 437.848 619.603 438.69 614.702 440.091C603.95 443.164 595.189 448.774 586.006 454.934C584.801 455.742 583.571 454.201 584.146 453.074C589.447 442.691 599.72 434.162 610.01 428.963C615.502 426.188 621.512 423.886 627.588 422.83ZM723.193 418.179L724.63 418.473C740.267 421.742 760.583 428.271 767.988 443.631C768.271 445.803 767.972 446.268 767.73 446.572L767.649 446.673C767.45 446.933 767.29 447.291 766.349 447.587C766.088 447.525 765.824 447.459 765.557 447.389C762.163 446.499 759.477 445.274 756.877 444.002L754.058 442.613C750.788 441.01 747.488 439.465 743.992 438.324C736.53 435.89 728.854 434.175 721.06 433.26C719.37 433.061 717.744 432.491 716.46 431.514C715.242 430.587 714.311 429.302 713.887 427.595C713.337 425.386 713.495 423.714 714.681 421.721C715.572 420.224 716.847 419.187 718.311 418.591C719.804 417.984 721.504 417.841 723.193 418.179Z" fill="black"/>
<path fill-rule="evenodd" clip-rule="evenodd" d="M729.5 641.999C722 641.999 717.5 636 715 631.5C711.389 625 710.176 620.344 698 620.999C685.824 621.654 685.059 628.499 681.035 636.371C676.5 645.243 678.884 650.956 663.797 654.243C654.178 654.209 662.5 654.243 653 654.243C639.5 652.743 639.089 656.41 635 675C633.529 681.69 669.499 681.5 693 680C710 677.5 714.755 677.172 734 670C742 665.5 753.733 656.676 754.5 652.5C756.111 643.725 749.5 639.176 742 640.5C733.5 642 735.757 640.474 729.5 641.999Z" fill="black"/>
<path fill-rule="evenodd" clip-rule="evenodd" d="M771.985 527.395C756.977 534.623 736.039 523.962 725.948 512.795C722.275 508.729 719.441 497.096 720.854 489.718C724.681 469.737 739.061 457.745 754.242 453.65C775.286 447.972 796.464 462.356 793.995 479.33C791.654 495.417 788.107 518.752 771.985 527.395M669.834 489.013C668.631 510.788 651.144 529.847 630.244 535.494C596.57 544.89 579.928 521.219 572.39 495.718C571.641 493.184 569.88 485.45 574.605 478.816C593.188 452.721 638.401 457.169 660.983 464.333C667.593 470.654 670.295 479.777 669.834 489.013M788.291 451.456C788.281 451.469 788.269 451.48 788.259 451.493C788.182 451.446 788.106 451.398 788.027 451.352C788.114 451.388 788.206 451.419 788.291 451.456M816.465 453.973C814.509 431.803 744.946 440.292 736.813 442.109C714.617 448.637 695.446 466.397 670.63 458.59C644.917 429.927 558.328 438.147 540.176 452.748C536.74 451.4 532.562 452.123 528.135 453.395C505.401 452.574 401.617 460.411 422.845 489.426C426.067 491.661 429.286 489.387 429.375 484.783C540.038 444.836 529.311 482.253 542.435 477.883C544.439 478.46 546.53 478.825 548.359 479.209C558.517 482.477 561.966 481.467 563.304 492.87C572.497 580.921 689.752 550.531 680.135 478.307C689.657 477.783 697.986 473.666 708.055 477.686C715.046 545.723 769.797 548.469 786.274 524.884C798.699 508.514 793.772 483.81 810.851 470.932C817.593 476.574 818.027 457.532 816.465 453.973" fill="black"/>
</svg>
